<svg width="18" height="18" fill="green" xmlns="http://www.w3.org/2000/svg" class="mx-2.5 w-4 h-4 text-appleGreen-500 fill-current"><path fill-rule="evenodd" clip-rule="evenodd" d="M3.75 8.25c0-2.482 2.018-4.5 4.5-4.5s4.5 2.018 4.5 4.5-2.018 4.5-4.5 4.5a4.504 4.504 0 0 1-4.5-4.5Zm11.78 6.22-2.546-2.547A5.964 5.964 0 0 0 14.25 8.25c0-3.308-2.692-6-6-6s-6 2.692-6 6 2.692 6 6 6a5.964 5.964 0 0 0 3.673-1.266l2.547 2.546a.748.748 0 0 0 1.06 0 .75.75 0 0 0 0-1.06Z"></path><mask id="search_svg__a" mask-type="alpha" maskUnits="userSpaceOnUse" x="2" y="2" width="14" height="14"><path fill-rule="evenodd" clip-rule="evenodd" d="M3.75 8.25c0-2.482 2.018-4.5 4.5-4.5s4.5 2.018 4.5 4.5-2.018 4.5-4.5 4.5a4.504 4.504 0 0 1-4.5-4.5Zm11.78 6.22-2.546-2.547A5.964 5.964 0 0 0 14.25 8.25c0-3.308-2.692-6-6-6s-6 2.692-6 6 2.692 6 6 6a5.964 5.964 0 0 0 3.673-1.266l2.547 2.546a.748.748 0 0 0 1.06 0 .75.75 0 0 0 0-1.06Z" fill="#fff"></path></mask><g mask="url(#search_svg__a)"><path d="M0 0h18v18H0z"></path></g></svg>